<svg version="1.1" viewBox="0 0 104.03 138.3" xmlns="http://www.w3.org/2000/svg">
 <g transform="matrix(.093794 0 0 .093794 -.69889 -.32866)">
  <path id="mann" d="m12.774 1474.4c-2.2486-2.7094 1.1409-53.07 5.3459-79.43 21.211-132.97 100.2-238.95 228.48-306.56 35.166-18.534 79.791-35.766 117.25-45.278l14.75-3.7452-0.026-57.602-0.026-57.602-5.2088-3.5c-9.1332-6.137-24.884-19.186-35.608-29.5-47.307-45.499-77.435-103.18-88.131-168.74-1.1003-6.744-2.0007-12.557-2.0008-12.918s-2.3627-0.94836-5.2502-1.3055c-11.439-1.4148-16.633-2.8761-25.682-7.2263-17.259-8.2963-31.266-25.54-35.692-43.936-2.1357-8.878-2.1357-23.873 0-32.751 3.3579-13.959 13.742-29.401 25.645-38.139l4.9797-3.6554v-81.671l-3.25-0.66359c-6.2258-1.2712-24.308-6.6104-32.75-9.6699-39.783-14.419-72.503-39.559-90.227-69.325-7.7433-13.004-8.1525-16.979-2.8896-28.068 6.8411-14.414 22.209-21.662 42.546-20.066 8.277 0.64976 15.192 1.6445 59.861 8.6116 14.184 2.2123 25.955 4.0224 26.158 4.0224s0.5765-31.162 0.8307-69.25c0.4888-73.226 0.7225-77.348 5.7676-101.75 23.287-112.63 120.61-188.55 263.45-205.5 23.776-2.8218 64.381-3.9727 94.157-2.6688 48.784 2.1363 82.493 7.8986 120.88 20.664 48.128 16.003 86.709 39.432 117.97 71.637 36.685 37.795 56.847 80.199 65.08 136.87 1.3912 9.5763 1.748 23.084 2.1329 80.75 0.2542 38.088 0.628 69.25 0.8307 69.25 0.4021 0 43.802-6.7549 65.448-10.186 19.085-3.0255 34.461-3.0176 43.264 0.0225 12.251 4.231 21.401 15.333 23.214 28.164 0.5668 4.0133 0.1445 5.4572-3.9046 13.35-14.517 28.298-39.298 51.549-72.073 67.62-14.408 7.0652-25.62 11.118-43 15.542l-13 3.3095-0.5228 78.991 4.9911 3.6638c8.3624 6.1386 15.826 15.23 20.543 25.023 5.1357 10.663 6.8276 17.973 6.8276 29.5 0 11.622-1.6941 18.839-7.027 29.933-3.7611 7.8242-5.9334 10.832-12.741 17.639-6.8071 6.8072-9.8147 8.9795-17.639 12.741-9.0498 4.3503-14.243 5.8115-25.682 7.2263-2.8875 0.35712-5.2501 0.94459-5.2502 1.3055s-0.9005 6.174-2.0009 12.918c-9.3995 57.609-33.906 109.27-72.24 152.3-14.356 16.112-36.102 35.497-51.535 45.941l-5.1721 3.5-0.026 57.75c-0.014 31.762 0.3117 57.752 0.7242 57.754 2.0992 0.011 31.52 7.3058 43.822 10.866 113.23 32.768 209.75 93.269 270.28 169.42 53.329 67.088 83.199 151.38 84.413 238.21l0.2376 17-550.13 0.2509c-447.98 0.2043-550.33 0.012-551.2-1.038z" style="fill:none;stroke-width:5;stroke:#070707"/>
  <path id="stilk" d="m597.47 345.71 0.49414 0.41016c-0.8909 0.31369-1.7958 0.63495-2.1582 0.80078-0.50225 0.22981-0.56732 0.28578-0.82813 0.30078l-0.14258 8e-3 -0.11718 0.082c-5.5164 3.8909-15.51 13.432-23.439 22.652-10.756 12.507-20.728 26.816-28.92 41.5l-5.7109 10.234c-0.42967 0.52169-0.66077 0.95336-0.7832 1.3633-0.12788 0.42814-0.15883 0.79149-0.28711 1.2949l-0.0781 0.30859 0.0273 0.0234c-0.0362 0.13272-0.0881 0.3058-0.16992 0.54688-0.18473 0.54406-0.47656 1.3295-0.84961 2.2891-0.74609 1.9191-1.8192 4.5392-3.0371 7.3906-2.4479 5.731-5.9251 14.892-7.7441 20.404-1.816 5.5033-4.2868 13.816-5.5 18.512-0.60055 2.3243-1.2041 4.2713-1.6836 5.5078-0.1364 0.35172-0.22265 0.48515-0.33204 0.70899-0.43005-1.2402-1.6297-4.6995-3.0332-8.7539-5.8011-16.758-15.62-34.373-24.674-44.195l-4.1504-4.5039c-0.92093-1.475-2.4087-2.0362-3.7363-3.0938l-6e-3 -4e-3 -7.2793-5.4785c-13.033-9.8084-27.266-16.038-43.67-19.121-13.56-2.548-40.828-1.6054-57.146 1.9512-8.221 1.7917-13.287 2.5423-16.365 3.4258-1.5393 0.44175-2.6079 0.915-3.3106 1.6523s-0.94958 1.7151-0.90234 2.8945l4e-3 0.0625 0.0176 0.0605c0.15304 0.51286-0.0136 1.2685-0.15039 2.6445-0.1368 1.376-0.19681 3.3322 0.3125 6.2793 1.1966 7.4759 5.8107 21.778 9.6738 30.021 14.083 30.053 39.932 50.046 76.289 59.055l9.5781 2.373 4.0996 0.60351c1.8405 0.67482 2.8487 0.44297 4.0274 0.32031l56.025 2.1934-0.75195 8.2266c-0.26923 2.9368-0.44127 7.8989-0.53711 13.699 12.174-2.5344 24.783-3.8692 37.695-3.8692 11.312 0 22.387 1.0292 33.145 2.9863 0.12287-3.2735 0.25203-6.4115 0.38672-9.0742 0.2221-4.3909 0.45478-7.6793 0.60742-8.6152l0.54297-3.3301c0.56012-1.8255 0.80743-4.3405 1.1973-5.9453 0.22713-0.89199 0.55754-2.1244 0.96484-3.6055 0.81461-2.9622 1.9389-6.9185 3.1758-11.15 1.2385-4.2376 2.3646-8.2621 3.1816-11.338 0.40855-1.5379 0.7404-2.8387 0.9707-3.8125 0.11515-0.48691 0.20535-0.89248 0.26758-1.209 0.0622-0.3165 0.0996-0.51324 0.0996-0.71875 0-0.1393 0.18535-0.89441 0.5625-1.877 0.37716-0.98254 0.93041-2.2615 1.6133-3.752 1.3658-2.981 3.2558-6.8073 5.3438-10.84 4.1754-8.0641 9.1465-16.972 12.27-21.637l2e-3 -2e-3c5.4576-8.0336 8.1108-10.03 12.941-16.059 1.6171-2.0176 5.487-6.1738 8.541-9.166 1.5502-1.5188 2.9569-3.0998 3.9863-4.4414 0.51472-0.67083 0.93407-1.2818 1.2344-1.8047 0.30031-0.52286 0.50586-0.92006 0.50586-1.3789 0-0.21698-0.0577-0.36532-0.13281-0.55468-0.0752-0.18937-0.17763-0.40576-0.30859-0.6543-0.26192-0.49708-0.63694-1.1259-1.1133-1.8809-0.95271-1.5099-2.3123-3.5148-3.9609-5.8613-3.2973-4.693-7.7502-10.751-12.389-16.898-4.6385-6.1474-9.4614-12.384-13.498-17.428-3.7604-4.6985-6.547-7.9625-8.2051-9.6016l0.13867-0.0215-0.74023-0.67969-2e-3 -4e-3 -0.0156-0.0137-0.1582-0.14453-0.0117 2e-3c-0.0297-0.024-0.0705-0.0611-0.0957-0.082l-0.0391 0.0996-0.0859 0.0117c-0.0156 2e-3 -0.0208 2e-3 -0.0352 4e-3l8e-3 -0.0156c-0.0297 5e-3 -0.0827 0.0129-0.11133 0.0176l-0.0293-0.23046z" style="fill:none;stroke-width:5;stroke:#000"/>
  <g id="Jordklode" transform="matrix(.7752 0 0 .7752 348.44 753.91)" style="stroke-width:6.4499;stroke:#000">
   <path transform="translate(1678.2 -441.52)" d="m-1634.4 288.88c35.837-82.415 118.05-140.19 213.5-140.19 95.45 0 177.66 57.775 213.5 140.19h-426.99" style="color-rendering:auto;color:#000000;dominant-baseline:auto;fill:none;font-feature-settings:normal;font-variant-alternates:normal;font-variant-caps:normal;font-variant-ligatures:normal;font-variant-numeric:normal;font-variant-position:normal;image-rendering:auto;isolation:auto;mix-blend-mode:normal;shape-padding:0;shape-rendering:auto;solid-color:#000000;stroke-width:6.4499;stroke:#000;text-decoration-color:#000000;text-decoration-line:none;text-decoration-style:solid;text-indent:0;text-orientation:mixed;text-transform:none;white-space:normal"/>
   <path transform="translate(1678.2 -441.52)" d="m-1653.5 382.99c0-0.54274-0.01-1.0859-0.01-1.6295 0-32.844 6.8406-64.12 19.172-92.478" style="color-rendering:auto;color:#000000;dominant-baseline:auto;fill:none;font-feature-settings:normal;font-variant-alternates:normal;font-variant-caps:normal;font-variant-ligatures:normal;font-variant-numeric:normal;font-variant-position:normal;image-rendering:auto;isolation:auto;mix-blend-mode:normal;shape-padding:0;shape-rendering:auto;solid-color:#000000;stroke-width:6.4499;stroke:#000;text-decoration-color:#000000;text-decoration-line:none;text-decoration-style:solid;text-indent:0;text-orientation:mixed;text-transform:none;white-space:normal"/>
   <path transform="translate(1678.2 -441.52)" d="m-1636 469.99c-11.104-26.855-17.32-56.226-17.532-86.997" style="color-rendering:auto;color:#000000;dominant-baseline:auto;fill:none;font-feature-settings:normal;font-variant-alternates:normal;font-variant-caps:normal;font-variant-ligatures:normal;font-variant-numeric:normal;font-variant-position:normal;image-rendering:auto;isolation:auto;mix-blend-mode:normal;shape-padding:0;shape-rendering:auto;solid-color:#000000;stroke-width:6.4499;stroke:#000;text-decoration-color:#000000;text-decoration-line:none;text-decoration-style:solid;text-indent:0;text-orientation:mixed;text-transform:none;white-space:normal"/>
   <path transform="translate(1678.2 -441.52)" d="m-1205.7 469.99c-34.924 84.462-118.2 144.04-215.13 144.04-96.93 0-180.21-59.581-215.13-144.04" style="color-rendering:auto;color:#000000;dominant-baseline:auto;fill:none;font-feature-settings:normal;font-variant-alternates:normal;font-variant-caps:normal;font-variant-ligatures:normal;font-variant-numeric:normal;font-variant-position:normal;image-rendering:auto;isolation:auto;mix-blend-mode:normal;shape-padding:0;shape-rendering:auto;solid-color:#000000;stroke-width:6.4499;stroke:#000;text-decoration-color:#000000;text-decoration-line:none;text-decoration-style:solid;text-indent:0;text-orientation:mixed;text-transform:none;white-space:normal"/>
   <path d="m490.01-58.526c-0.2122 30.771-6.4281 60.141-17.532 86.997" style="color-rendering:auto;color:#000000;dominant-baseline:auto;fill:none;font-feature-settings:normal;font-variant-alternates:normal;font-variant-caps:normal;font-variant-ligatures:normal;font-variant-numeric:normal;font-variant-position:normal;image-rendering:auto;isolation:auto;mix-blend-mode:normal;shape-padding:0;shape-rendering:auto;solid-color:#000000;stroke-width:6.4499;stroke:#000;text-decoration-color:#000000;text-decoration-line:none;text-decoration-style:solid;text-indent:0;text-orientation:mixed;text-transform:none;white-space:normal"/>
   <path d="m470.84-152.63c12.331 28.359 19.172 59.635 19.172 92.478 0 0.5436 0 1.0868-0.01 1.6295" style="color-rendering:auto;color:#000000;dominant-baseline:auto;fill:none;font-feature-settings:normal;font-variant-alternates:normal;font-variant-caps:normal;font-variant-ligatures:normal;font-variant-numeric:normal;font-variant-position:normal;image-rendering:auto;isolation:auto;mix-blend-mode:normal;shape-padding:0;shape-rendering:auto;solid-color:#000000;stroke-width:6.4499;stroke:#000;text-decoration-color:#000000;text-decoration-line:none;text-decoration-style:solid;text-indent:0;text-orientation:mixed;text-transform:none;white-space:normal"/>
   <path d="m248.7-293.34c-113.52 157.05-103.37 307.01 0.30219 465.57" style="fill:none;stroke-width:6.4499;stroke:#000"/>
   <path d="m248.7-293.34c113.52 157.05 103.98 307.01 0.30219 465.57" style="fill:none;stroke-width:6.4499;stroke:#000"/>
   <path d="m42.213 28.471 430.26-1e-5" style="fill:none;stroke-width:6.4499;stroke:#000"/>
   <path d="m490-58.526-465.32 1e-5" style="fill:none;stroke-width:6.4499;stroke:#000"/>
  </g>
 </g>
</svg>
