<svg width="33.204mm" height="36.711mm" version="1.1" viewBox="0 0 33.204 36.711" xmlns="http://www.w3.org/2000/svg">
 <g transform="translate(-74.092 -114.39)">
  <g aria-label="TRB">
   <path transform="matrix(.26458 0 0 .26458 74.092 114.39)" d="m7.3711 0v14.719h37.352c-11.692 0-19.768 2.6278-24.229 7.8867-4.4607 5.2119-6.6895 11.2-6.6895 17.961 0 3.9442 0.79808 7.8411 2.3945 11.691 1.5495 3.8502 3.7783 7.2781 6.6895 10.283 2.9112 3.0051 6.8802 5.5415 11.904 7.6074l-34.793 48.809h18.17l29.652-44.09h8.7676v63.883h19.688v-19.793h11.02c8.7335 0 15.143-1.0336 19.229-3.0996 4.085-2.113 7.3708-5.2586 9.8594-9.4375 2.4886-4.179 3.7344-8.6871 3.7344-13.523 0-3.9911-0.91681-7.8414-2.748-11.551-1.7842-3.7564-4.3654-6.9487-7.7461-9.5781-3.3338-2.6764-8.3578-5.0473-15.072-7.1133 7.7005-2.9112 13.194-6.8548 16.48-11.832 3.2868-5.0241 4.9297-10.071 4.9297-15.143 0-6.2449-2.441-11.621-7.3242-16.129-4.8832-4.5546-13.218-6.832-25.004-6.832h41.861v-14.719zm44.959 25.775h4.2598v38.029c-10.801-0.0349-18.093-2.3087-21.867-6.8281-3.8503-4.5546-5.7754-9.5553-5.7754-15.002 0-3.2399 0.72799-6.0565 2.1836-8.4512 1.4086-2.4416 3.6374-4.3434 6.6895-5.7051 3.0051-1.3617 7.8422-2.043 14.51-2.043zm23.947 0h0.73633c8.7805 0 14.932 1.3159 18.453 3.9453 3.5685 2.5825 5.3535 6.3374 5.3535 11.268 0 5.6345-1.9952 10.308-5.9863 14.018-3.9398 3.6153-10.133 5.436-18.557 5.4824zm0 44.104c7.9623 0.14501 14.596 2.2506 19.895 6.3262 5.5406 4.1789 8.3105 9.273 8.3105 15.283 0 3.3338-0.86814 6.3392-2.6055 9.0156-1.6904 2.6294-4.1079 4.5312-7.2539 5.7051-2.9345 1.0512-9.0785 1.6052-18.346 1.6758z"/>
  </g>
 </g>
</svg>
